# xmcd
#
# Track frame offsets:
#       150
#       16158
#       39486
#       66640
#       76285
#       143110
#       169263
#       200561
#       219073
#
# Disc length: 3256 seconds
#
# Revision: 1
# Processed by: cddbd v1.5.1PL2 Copyright (c) Steve Scherf et al.
# Submitted via: MusiCat 1.1
#
DISCID=790cb609
DTITLE=Bootleg Kings - Live In Europe
DYEAR=1900
DGENRE=
TTITLE0=Let The Good Times Roll
TTITLE1=Stagger Lee
TTITLE2=Mystery Train
TTITLE3=Rocking Pneumonia and the Boogie Woogie Blues
TTITLE4=Hit The Road Jack/ Fever
TTITLE5=Georgia On My Mind
TTITLE6=Land Of 1000 Dances/ Tequila
TTITLE7=Good Golly Miss Molly
TTITLE8=Tear It Up
EXTD=\n\n
EXTT0=
EXTT1=
EXTT2=
EXTT3=
EXTT4=
EXTT5=
EXTT6=
EXTT7=
EXTT8=
PLAYORDER=
